<svg width="250" height="250" viewBox="0 0 250 250" fill="none" xmlns="http://www.w3.org/2000/svg">
<circle cx="125" cy="125" r="120" transform="rotate(180 125 125)" stroke="url(#paint0_linear_0_1)" stroke-width="10"/>
<circle cx="115" cy="115" r="110" transform="matrix(1 0 0 -1 10 240)" stroke="url(#paint1_linear_0_1)" stroke-width="10"/>
<path d="M125 10C140.102 10 155.056 12.9746 169.009 18.7539C182.961 24.5331 195.639 33.004 206.317 43.6827C216.996 54.3615 225.467 67.039 231.246 80.9914C237.025 94.9439 240 109.898 240 125C240 140.102 237.025 155.056 231.246 169.009C225.467 182.961 216.996 195.639 206.317 206.317C195.639 216.996 182.961 225.467 169.009 231.246C155.056 237.025 140.102 240 125 240L125 125V10Z" fill="url(#paint2_linear_0_1)"/>
<path d="M125 195C106.435 195 88.6301 187.625 75.5025 174.497C62.375 161.37 55 143.565 55 125C55 106.435 62.375 88.6301 75.5025 75.5025C88.63 62.375 106.435 55 125 55L125 125V195Z" fill="url(#paint3_linear_0_1)"/>
<path d="M125 195C143.565 195 161.37 187.625 174.497 174.497C187.625 161.37 195 143.565 195 125C195 106.435 187.625 88.6301 174.497 75.5025C161.37 62.375 143.565 55 125 55L125 125V195Z" fill="url(#paint4_linear_0_1)"/>
<path d="M125.127 86.8785L158.036 159.629C131.982 154.64 117.578 154.694 92.2181 159.629L125.127 86.8785Z" fill="white"/>
<defs>
<linearGradient id="paint0_linear_0_1" x1="0" y1="125" x2="250" y2="125" gradientUnits="userSpaceOnUse">
<stop stop-color="#C8C8C8"/>
<stop offset="1" stop-color="white" stop-opacity="0"/>
</linearGradient>
<linearGradient id="paint1_linear_0_1" x1="0" y1="115" x2="230" y2="115" gradientUnits="userSpaceOnUse">
<stop stop-color="#C8C8C8"/>
<stop offset="1" stop-color="white" stop-opacity="0"/>
</linearGradient>
<linearGradient id="paint2_linear_0_1" x1="125" y1="125" x2="240" y2="125" gradientUnits="userSpaceOnUse">
<stop stop-color="#EAEAEA" stop-opacity="0.15"/>
<stop offset="1" stop-color="#848484" stop-opacity="0.6"/>
</linearGradient>
<linearGradient id="paint3_linear_0_1" x1="125" y1="55" x2="125" y2="195" gradientUnits="userSpaceOnUse">
<stop stop-color="#51C7AF"/>
<stop offset="1" stop-color="#37475E"/>
</linearGradient>
<linearGradient id="paint4_linear_0_1" x1="125" y1="55" x2="125" y2="195" gradientUnits="userSpaceOnUse">
<stop stop-color="#FDB15B"/>
<stop offset="1" stop-color="#F47D5D"/>
</linearGradient>
</defs>
</svg>
